<svg id="visual" viewBox="0 0 960 540" width="960" height="540" xmlns="http://www.w3.org/2000/svg" xmlns:xlink="http://www.w3.org/1999/xlink"><rect x="0" y="0" width="960" height="540" fill="#cacaca"></rect><path d="M351 0L511 0L511 77L425 77L425 154L383 154L383 231L475 231L475 309L445 309L445 386L491 386L491 463L400 463L400 540L0 540L0 463L0 463L0 386L0 386L0 309L0 309L0 231L0 231L0 154L0 154L0 77L0 77L0 0L0 0Z" fill="#797979"></path><path d="M239 0L290 0L290 77L344 77L344 154L284 154L284 231L248 231L248 309L371 309L371 386L232 386L232 463L351 463L351 540L0 540L0 463L0 463L0 386L0 386L0 309L0 309L0 231L0 231L0 154L0 154L0 77L0 77L0 0L0 0Z" fill="#5c5c5c"></path><path d="M146 0L136 0L136 77L152 77L152 154L103 154L103 231L159 231L159 309L149 309L149 386L149 386L149 463L102 463L102 540L0 540L0 463L0 463L0 386L0 386L0 309L0 309L0 231L0 231L0 154L0 154L0 77L0 77L0 0L0 0Z" fill="#414141"></path></svg>